<?xml version="1.0" encoding="utf-8"?>
<!-- Generator: Adobe Illustrator 16.0.3, SVG Export Plug-In . SVG Version: 6.00 Build 0)  -->
<!DOCTYPE svg PUBLIC "-//W3C//DTD SVG 1.1//EN" "http://www.w3.org/Graphics/SVG/1.1/DTD/svg11.dtd">
<svg version="1.1" id="Layer_1" xmlns="http://www.w3.org/2000/svg" xmlns:xlink="http://www.w3.org/1999/xlink" x="0px" y="0px"
	 width="38.333px" height="42.333px" viewBox="30.833 29.167 38.333 42.333" enable-background="new 30.833 29.167 38.333 42.333"
	 xml:space="preserve">
<g id="Captions" display="none">
</g>
<g id="Your_Icon">
	<path fill="#FFFFFF" d="M60.311,56.765c1.188,0,2.147,1.044,2.147,2.147h1.288c0-1.841-1.538-3.436-3.436-3.436
		s-3.437,1.595-3.437,3.436h1.288C58.163,57.809,59.125,56.765,60.311,56.765z"/>
	<path fill="#FFFFFF" d="M63.406,41.322l-6.479-7.134c0,0-1.126-1.415-3.625-1.415c-2.119,0-15.25,0-15.25,0
		c-1.355,0-2.778,1.137-2.778,2.493v30.049c0,1.354,1.423,2.803,2.778,2.803h13.79l-1.472-1.841H37.937c0,0-0.82,0-0.82-0.82
		c0-0.821,0-29.2,0-30.021c0-0.82,0.82-0.82,0.82-0.82h16.682c0.907,0,1.644,0.734,1.644,1.642v6.458h4.899
		c1.643,0,2.464,1.303,2.464,2.946v6.625l1.84,1.842c0-5.107,0-6.662,0-8.084C65.465,42.758,63.406,41.322,63.406,41.322z"/>
	<path fill="#FFFFFF" d="M64.729,59.649h-8.837c-0.406,0-0.735,0.33-0.735,0.736v6.995c0,0.406,0.329,0.736,0.735,0.736h8.837
		c0.405,0,0.735-0.33,0.735-0.736v-6.995C65.465,59.979,65.135,59.649,64.729,59.649z M64.36,65.172
		c0,0.367-0.368,0.367-0.368,0.367h-7.363c0,0-0.367,0-0.367-0.367c0-0.368,0-2.21,0-2.577c0-0.368,0.367-0.368,0.367-0.368h7.363
		c0,0,0.368,0,0.368,0.368C64.36,62.962,64.36,64.804,64.36,65.172z"/>
	<circle fill="#FFFFFF" cx="58.14" cy="63.883" r="0.775"/>
	<circle fill="#FFFFFF" cx="60.311" cy="63.883" r="0.775"/>
	<circle fill="#FFFFFF" cx="62.48" cy="63.883" r="0.775"/>
</g>
</svg>
